Coordinates
version=1
nRows=19
nColumns=24
inDegrees=yes

Units are S.I. units (second, meters, Newtons, ...)
Angles are in degrees.

endheader
time	pelvis_tilt	pelvis_list	pelvis_rotation	pelvis_tx	pelvis_ty	pelvis_tz	hip_flexion_r	hip_adduction_r	hip_rotation_r	knee_angle_r	ankle_angle_r	subtalar_angle_r	mtp_angle_r	hip_flexion_l	hip_adduction_l	hip_rotation_l	knee_angle_l	ankle_angle_l	subtalar_angle_l	mtp_angle_l	lumbar_extension	lumbar_bending	lumbar_rotation
      1.00900000	     -3.97871318	     -2.17378680	     -1.74457590	     -0.10522942	      1.04071287	      0.34836033	     -9.69411891	      5.35106040	     -2.01204950	     -9.46973103	     19.29554254	      3.88003431	      2.58923354	     29.81780355	     -3.27897643	     -3.94847397	     -4.94762221	      8.69014588	      9.14166466	      3.10873425	     -8.09845351	      6.11823284	      4.94485243
      1.01316667	     -3.93178818	     -2.15580040	     -1.86306661	     -0.09930227	      1.03998679	      0.34828997	     -9.87250460	      5.25564577	     -2.05835909	     -9.94345233	     19.44210474	      4.15485365	      2.66612537	     29.77911373	     -3.20137794	     -3.77983995	     -5.13504537	      8.68253889	      9.15649938	      3.11620938	     -8.15865522	      6.02352460	      5.01833691
      1.01733333	     -3.91772369	     -2.13533719	     -1.98358641	     -0.09331382	      1.03923579	      0.34821678	    -10.00464860	      5.15552728	     -2.10767877	    -10.44531389	     19.56971313	      4.44290927	      2.76775458	     29.77975766	     -3.12255781	     -3.59836249	     -5.40694488	      8.64458115	      9.14451729	      3.13441628	     -8.16418271	      5.92122275	      5.09474973
      1.02150000	     -3.86639737	     -2.09501182	     -2.09825916	     -0.08729601	      1.03857919	      0.34813603	    -10.17067586	      5.03045977	     -2.16335716	    -10.95900389	     19.65633316	      4.71490018	      2.89965027	     29.73979212	     -3.02101207	     -3.41730051	     -5.74225470	      8.56651697	      9.10455267	      3.16670504	     -8.21752621	      5.79196885	      5.15345721
      1.02566667	     -3.84523007	     -2.05881029	     -2.21503706	     -0.08123181	      1.03790904	      0.34806087	    -10.29694169	      4.91017758	     -2.19291643	    -11.49138787	     19.72876923	      4.97089856	      3.05866336	     29.73472611	     -2.92526328	     -3.20947874	     -6.14628131	      8.46507005	      9.03726088	      3.21300453	     -8.22539192	      5.66675569	      5.21898758
      1.02983333	     -3.79876803	     -2.00519030	     -2.33151611	     -0.07512997	      1.03731949	      0.34798504	    -10.44298198	      4.76819160	     -2.20624273	    -12.04124898	     19.79942075	      5.20626159	      3.21941007	     29.69516612	     -2.81141351	     -2.99047568	     -6.59245574	      8.33627951	      8.95224284	      3.26449690	     -8.26294857	      5.51160143	      5.26965896
      1.03400000	     -3.76554462	     -1.94260863	     -2.44243815	     -0.06897296	      1.03674529	      0.34788888	    -10.56061520	      4.61274791	     -2.25435679	    -12.62219132	     19.81020628	      5.45645531	      3.40594693	     29.67150571	     -2.68624576	     -2.76505587	     -7.09124930	      8.15069011	      8.82951581	      3.32548796	     -8.26911882	      5.34919991	      5.31932381
      1.03816667	     -3.73729633	     -1.88470061	     -2.54107515	     -0.06278486	      1.03619314	      0.34777031	    -10.66969094	      4.46250885	     -2.29925084	    -13.20693048	     19.77584087	      5.72610079	      3.71142779	     29.66212913	     -2.56007706	     -2.51138014	     -7.65010163	      7.91617818	      8.64550854	      3.42675065	     -8.27117718	      5.19960184	      5.35646591
      1.04233333	     -3.73877225	     -1.81014250	     -2.65570338	     -0.05655469	      1.03563131	      0.34767608	    -10.71835681	      4.29053132	     -2.33008807	    -13.85581176	     19.75063539	      5.94311673	      3.97035716	     29.67323027	     -2.42767770	     -2.26645918	     -8.22494745	      7.65681949	      8.47235477	      3.50857476	     -8.22060498	      5.01126118	      5.39006623
      1.04650000	     -3.68267124	     -1.72343577	     -2.75336478	     -0.05030354	      1.03521574	      0.34753219	    -10.82130625	      4.09755619	     -2.40224462	    -14.51409297	     19.66402018	      6.21806229	      4.27177044	     29.62231064	     -2.27281396	     -2.00830373	     -8.82670052	      7.34875069	      8.23956525	      3.59755697	     -8.24692113	      4.81715247	      5.41973366
      1.05066667	     -3.68576495	     -1.64507599	     -2.85248443	     -0.04401527	      1.03473653	      0.34738983	    -10.84422475	      3.91658868	     -2.44615033	    -15.20577214	     19.54346665	      6.44424905	      4.58905058	     29.64800492	     -2.13198985	     -1.75211348	     -9.48471721	      7.02512251	      7.99706143	      3.68255267	     -8.18800469	      4.63562880	      5.43516030
      1.05483333	     -3.67091960	     -1.56204200	     -2.94035410	     -0.03770980	      1.03432000	      0.34720604	    -10.86705349	      3.72338922	     -2.52845353	    -15.93402467	     19.39188120	      6.72328501	      4.95877983	     29.65701497	     -1.98105530	     -1.48300018	    -10.16659865	      6.67638093	      7.71064325	      3.76927124	     -8.15247722	      4.44818246	      5.44620240
      1.05900000	     -3.63958165	     -1.48274496	     -3.01983235	     -0.03138727	      1.03399103	      0.34701500	    -10.90324973	      3.53787777	     -2.56730192	    -16.65526492	     19.08215702	      6.80639145	      9.10913824	     29.65225010	     -1.83307293	     -1.20550800	    -10.87285485	      6.29958098	      7.36355924	      4.65956615	     -8.13419312	      4.27587267	      5.42660863
      1.06316667	     -3.60913768	     -1.37472979	     -3.11799397	     -0.02502250	      1.03369665	      0.34683371	    -10.89776988	      3.30326748	     -2.66643313	    -17.46819381	     18.87204771	      7.12097130	      9.16885693	     29.65431860	     -1.67511382	     -1.04263982	    -11.61501499	      5.95439743	      7.15275099	      4.65369752	     -8.10627886	      4.04171913	      5.44195426
      1.06733333	     -3.61337502	     -1.28283228	     -3.20006375	     -0.01866206	      1.03338365	      0.34659354	    -10.82860427	      3.08519523	     -2.77861350	    -18.32829307	     18.61113692	      7.42511727	      9.27628859	     29.70092082	     -1.52440561	     -0.81818487	    -12.37900427	      5.60279301	      6.83581305	      4.64405150	     -8.03581550	      3.84819383	      5.44401410
      1.07150000	     -3.57832127	     -1.16913864	     -3.28152867	     -0.01227935	      1.03319432	      0.34634377	    -10.77934133	      2.83369562	     -2.90853994	    -19.22608997	     18.30898787	      7.74293453	      9.42861112	     29.69789477	     -1.35413136	     -0.61713982	    -13.13899998	      5.24932499	      6.50191593	      4.62853683	     -8.01070927	      3.62167022	      5.43390826
      1.07566667	     -3.57051261	     -1.06653001	     -3.35309441	     -0.00592464	      1.03298492	      0.34603090	    -10.65898517	      2.58637233	     -3.07519349	    -20.20519302	     18.04528388	      8.08224834	      9.70746910	     29.73456587	     -1.18819194	     -0.37817591	    -13.92501171	      4.91496220	      6.09027420	      4.59917047	     -7.96302369	      3.43022470	      5.43005163
      1.07983333	     -3.57044647	     -0.97231308	     -3.42804511	      0.00046093	      1.03283790	      0.34571976	    -10.52348626	      2.34820772	     -3.18672254	    -21.17000176	     17.52335420	      8.28527614	     13.30004581	     29.77076289	     -1.03539558	     -0.14196043	    -14.70425288	      4.58531328	      5.65661329	      4.22588123	     -7.89781026	      3.24897295	      5.38781119
      1.08400000	     -3.53137693	     -0.83985375	     -3.50852519	      0.00686467	      1.03277789	      0.34541680	    -10.37999680	      2.04830683	     -3.37239812	    -22.24428783	     17.14254909	      8.68357550	     13.37888666	     29.77531030	     -0.86387586	     -0.06407298	    -15.51320738	      4.34675644	      5.44036103	      4.20719624	     -7.86938906	      2.99670777	      5.39524681
